<?xml version="1.0" standalone="no"?>
<!DOCTYPE svg PUBLIC "-//W3C//DTD SVG 20010904//EN"
 "http://www.w3.org/TR/2001/REC-SVG-20010904/DTD/svg10.dtd">
<svg version="1.0" xmlns="http://www.w3.org/2000/svg"
 width="200.000000pt" height="200.000000pt" viewBox="0 0 200.000000 200.000000"
 preserveAspectRatio="xMidYMid meet">

<g transform="translate(0.000000,200.000000) scale(0.100000,-0.100000)"
fill="#FFFFFF" stroke="none">
<path d="M905 1638 c-135 -26 -277 -136 -336 -262 -129 -275 22 -594 316 -671
68 -17 163 -19 218 -4 l37 10 0 264 0 265 -164 0 c-133 0 -166 3 -176 15 -7 8
-10 21 -7 30 5 12 36 15 174 17 l168 3 3 53 c2 35 8 55 18 59 26 10 44 -17 44
-68 l0 -48 37 -3 c65 -5 56 -57 -9 -58 l-28 0 0 -250 c0 -137 4 -250 8 -250
19 0 101 61 144 107 179 193 166 494 -30 674 -112 103 -265 146 -417 117z
m182 -225 c4 -10 -2 -23 -15 -34 -12 -9 -22 -24 -22 -33 0 -12 -10 -16 -35
-16 -28 0 -35 4 -35 20 0 17 -7 20 -40 20 -33 0 -40 -3 -40 -20 0 -16 -7 -20
-35 -20 -28 0 -35 4 -35 19 0 10 -9 21 -20 24 -19 5 -27 36 -13 50 3 4 69 7
145 7 120 0 139 -2 145 -17z m-187 -258 l0 -65 40 0 39 0 3 63 c3 62 3 62 33
62 l30 0 3 -133 c3 -154 -8 -190 -64 -217 -45 -21 -86 -12 -119 27 -24 29 -25
34 -25 179 l0 149 30 0 30 0 0 -65z"/>
<path d="M477 528 c-11 -8 -20 -33 -24 -65 -3 -29 -10 -53 -15 -53 -5 0 -6 -4
-3 -10 8 -13 48 -13 61 0 6 6 9 34 7 63 -2 35 0 45 5 32 8 -18 9 -17 14 7 3
18 0 29 -9 32 -19 8 -16 8 -36 -6z"/>
<path d="M557 522 c-22 -24 -22 -95 -1 -116 17 -18 42 -20 62 -7 11 7 11 9 -2
14 -19 7 -23 92 -5 103 8 4 7 9 -2 15 -21 13 -34 11 -52 -9z m30 -74 c-2 -13
-4 -5 -4 17 -1 22 1 32 4 23 2 -10 2 -28 0 -40z"/>
<path d="M1313 532 c-19 -12 -33 -60 -26 -93 7 -34 41 -56 70 -44 12 5 14 9 6
12 -7 3 -13 11 -13 19 0 9 -4 12 -10 9 -6 -4 -10 8 -10 30 0 22 4 34 10 30 6
-3 10 1 10 9 0 9 6 16 13 16 8 0 7 4 -3 10 -18 12 -31 12 -47 2z"/>
<path d="M1600 520 c-38 -38 -14 -130 33 -130 7 0 22 6 33 14 27 20 27 102 0
122 -27 19 -42 18 -66 -6z m80 -55 c0 -16 -29 -53 -30 -37 0 7 -4 11 -9 8 -5
-3 -9 10 -9 29 0 19 4 32 9 29 5 -3 9 1 9 8 1 16 30 -21 30 -37z"/>
<path d="M1950 533 c-23 -9 -30 -24 -30 -70 0 -23 -5 -45 -11 -49 -19 -11 8
-27 35 -20 18 4 24 11 19 23 -5 12 -3 14 6 8 11 -6 12 3 6 45 -5 36 -4 50 3
46 6 -3 13 -2 16 3 5 7 -19 24 -27 20 -1 0 -9 -3 -17 -6z"/>
<path d="M0 466 l0 -66 30 0 c25 0 30 4 30 24 0 13 7 27 16 30 10 4 14 16 12
38 -3 31 -6 33 -45 36 l-43 3 0 -65z m80 24 c0 -10 -4 -22 -10 -25 -6 -4 -10
7 -10 25 0 18 4 29 10 25 6 -3 10 -15 10 -25z"/>
<path d="M107 470 c-10 -33 -17 -62 -17 -65 0 -3 20 -5 45 -5 40 0 45 2 45 23
0 18 -2 19 -11 7 -8 -11 -9 -8 -4 13 4 20 2 27 -6 22 -8 -5 -9 -1 -4 15 5 16
4 20 -5 15 -9 -5 -10 -2 -5 14 4 15 2 21 -8 21 -8 0 -20 -23 -30 -60z"/>
<path d="M190 476 c0 -58 16 -86 50 -86 27 0 40 30 40 89 0 73 -18 63 -23 -11
l-3 -63 -2 63 c-2 62 -2 62 -32 62 -30 0 -30 -1 -30 -54z"/>
<path d="M294 516 c-3 -7 -4 -35 -2 -62 l3 -49 45 -1 c25 -1 34 0 22 3 -22 4
-23 9 -20 64 3 56 2 59 -20 59 -12 0 -25 -6 -28 -14z"/>
<path d="M640 465 l0 -65 30 0 30 0 0 65 0 65 -30 0 -30 0 0 -65z m47 -27 c-2
-18 -4 -6 -4 27 0 33 2 48 4 33 2 -15 2 -42 0 -60z"/>
<path d="M710 465 l0 -65 48 1 c26 1 39 3 30 6 -23 6 -26 73 -3 73 8 0 15 5
15 10 0 6 -7 10 -15 10 -21 0 -19 18 3 23 9 3 -4 5 -30 6 l-48 1 0 -65z"/>
<path d="M821 463 c1 -41 4 -59 8 -45 l6 24 19 -21 c11 -12 27 -21 38 -21 16
0 18 8 18 65 0 41 -4 65 -11 65 -6 0 -9 -9 -6 -20 3 -11 1 -20 -5 -20 -5 0 -6
-5 -2 -12 4 -7 3 -8 -5 -4 -6 4 -9 12 -5 17 8 14 -15 39 -37 39 -17 0 -19 -8
-18 -67z"/>
<path d="M920 519 c0 -5 5 -7 10 -4 6 4 10 -17 10 -54 0 -60 1 -61 28 -61 27
0 27 0 24 59 -3 55 -2 60 20 64 12 2 -3 5 -34 6 -35 0 -58 -3 -58 -10z"/>
<path d="M1040 465 l0 -65 30 0 30 0 0 65 0 65 -30 0 -30 0 0 -65z m47 -27
c-2 -18 -4 -6 -4 27 0 33 2 48 4 33 2 -15 2 -42 0 -60z"/>
<path d="M1110 465 l0 -65 30 0 c28 0 30 2 30 40 0 29 4 40 15 40 8 0 15 5 15
10 0 6 -7 10 -15 10 -21 0 -19 18 3 23 9 3 -4 5 -30 6 l-48 1 0 -65z"/>
<path d="M1210 465 l0 -65 30 0 30 0 0 65 0 65 -30 0 -30 0 0 -65z"/>
<path d="M1430 524 c0 -4 7 -34 16 -66 18 -63 37 -74 51 -31 l10 28 7 -28 c4
-16 12 -27 18 -25 14 5 50 128 37 128 -5 0 -9 -6 -9 -13 0 -7 -7 -22 -15 -33
-15 -18 -15 -18 -13 11 3 25 -1 31 -21 33 -20 3 -23 0 -19 -20 3 -16 0 -25 -8
-25 -7 0 -12 10 -11 21 1 15 -5 22 -20 24 -13 2 -23 0 -23 -4z"/>
<path d="M1700 465 l0 -65 30 0 c17 0 30 5 30 13 1 7 5 6 14 -5 11 -15 13 -9
14 39 2 67 -9 83 -54 83 l-34 0 0 -65z m80 3 c0 -15 -4 -30 -10 -33 -6 -4 -10
12 -10 42 0 35 3 44 10 33 5 -8 10 -27 10 -42z"/>
<path d="M1807 523 c-4 -3 -7 -33 -7 -65 0 -57 1 -58 28 -58 27 0 27 1 27 65
0 59 -2 65 -21 65 -11 0 -24 -3 -27 -7z"/>
<path d="M1872 518 c-14 -14 -16 -38 -3 -38 6 0 12 -19 14 -42 2 -25 4 -14 3
25 0 37 -1 67 -1 67 -1 0 -6 -5 -13 -12z"/>
</g>
</svg>
